{"glyphs":{":":{"x_min":0,"x_max":329,"ha":329,"o":"m 120 366 q 120 385 133 397 q 146 410 165 410 q 184 410 196 397 q 209 385 209 366 q 209 347 196 334 q 184 321 165 321 q 146 321 133 334 q 120 347 120 366 z m 120 37 q 120 56 133 68 q 146 81 165 81 q 184 81 196 68 q 209 56 209 37 q 209 18 196 6 q 184 -7 165 -7 q 146 -7 133 6 q 120 19 120 37 z"},"$":{"x_min":0,"x_max":481,"ha":481,"o":"m 205 391 q 207 391 212 389 q 248 381 265 378 l 265 644 q 253 646 243 648 q 233 649 224 649 q 216 649 212 649 q 208 648 205 648 z m 184 396 l 184 644 q 136 631 108 594 q 80 556 80 507 q 80 460 106 433 q 131 406 184 396 z m 286 13 q 342 24 375 62 q 409 101 409 153 q 409 204 377 238 q 344 272 286 283 z m 205 20 q 218 16 233 14 q 248 12 265 12 l 265 287 q 250 291 236 293 q 221 295 205 297 z m 33 7 l 33 237 l 45 237 q 50 150 84 99 q 118 47 184 25 l 184 300 q 117 309 79 349 q 40 389 40 449 q 40 530 77 585 q 115 640 184 660 l 184 743 l 205 743 l 205 663 q 215 664 220 665 q 225 665 229 665 q 235 665 242 664 q 250 664 265 661 l 265 743 l 286 743 l 286 656 q 308 648 335 628 q 363 609 374 609 q 386 609 392 620 q 398 631 398 653 l 398 658 l 408 658 l 408 453 l 397 453 q 392 525 363 572 q 334 620 286 637 l 286 374 q 370 363 412 322 q 453 280 453 208 q 453 126 408 69 q 362 12 286 -3 l 286 -145 l 265 -145 l 265 -3 l 257 -3 q 246 -3 233 -1 q 220 0 205 4 l 205 -145 l 184 -145 l 184 7 q 156 16 120 34 q 83 52 72 52 q 61 52 55 41 q 49 29 48 7 z"},"?":{"x_min":0,"x_max":449,"ha":449,"o":"m 125 30 q 125 49 138 62 q 150 75 169 75 q 188 75 200 62 q 213 49 213 30 q 213 11 200 -1 q 188 -14 169 -14 q 150 -14 138 -1 q 125 12 125 30 z m 169 136 l 157 134 q 150 161 146 188 q 143 214 143 242 q 143 334 229 408 l 234 413 l 236 415 q 327 494 327 556 q 327 602 294 632 q 262 661 211 661 q 173 661 145 644 q 117 626 117 608 q 117 602 123 597 q 129 592 143 587 q 163 580 171 570 q 180 560 180 545 q 180 524 169 512 q 157 501 136 501 q 112 501 97 517 q 83 533 83 560 q 83 611 119 644 q 155 676 212 676 q 278 676 318 630 q 358 584 358 509 q 358 458 338 419 q 318 379 269 334 q 261 327 245 313 q 167 244 167 181 q 167 169 167 158 q 168 147 169 136 z"},"<":{"x_min":0,"x_max":833,"ha":833,"o":"m 704 559 l 704 497 l 216 298 l 704 100 l 704 37 l 129 273 l 129 323 z"},"'":{"x_min":0,"x_max":170,"ha":170,"o":"m 93 422 l 77 422 l 45 645 q 44 649 44 653 q 44 657 44 664 q 44 688 54 701 q 65 714 85 714 q 105 714 116 701 q 127 688 127 665 q 127 661 125 648 q 125 646 125 645 z"},"=":{"x_min":0,"x_max":833,"ha":833,"o":"m 124 233 l 709 233 l 709 176 l 124 176 z m 124 420 l 709 420 l 709 363 l 124 363 z"},"a":{"x_min":0,"x_max":440,"ha":440,"o":"m 450 43 q 428 15 408 3 q 388 -9 364 -9 q 333 -9 312 8 q 291 24 284 54 q 265 21 229 4 q 194 -12 142 -12 q 92 -12 60 17 q 27 45 27 88 q 27 152 92 188 q 156 223 275 223 l 280 223 l 280 324 q 280 362 262 379 q 244 396 203 396 q 169 396 143 379 q 117 363 117 347 q 117 346 131 333 q 145 319 145 303 q 145 281 133 269 q 122 256 102 256 q 81 256 69 269 q 56 282 56 303 q 56 348 99 379 q 141 410 205 410 q 237 410 265 401 q 292 393 317 375 q 340 358 349 339 q 358 321 358 279 l 358 78 q 358 46 365 31 q 373 15 388 15 q 400 15 411 23 q 423 32 439 53 z m 280 73 l 280 208 q 274 208 268 209 q 262 209 250 209 q 181 209 147 182 q 114 155 114 99 q 114 57 132 33 q 151 10 184 10 q 213 10 240 27 q 266 44 280 73 z"},"L":{"x_min":0,"x_max":576,"ha":576,"o":"m 12 0 l 12 14 l 87 14 l 87 648 l 12 648 l 12 662 l 259 662 l 259 648 l 188 648 l 188 14 l 300 14 q 451 14 500 52 q 550 91 550 198 l 550 216 l 564 216 l 564 0 z"},"3":{"x_min":0,"x_max":481,"ha":481,"o":"m 108 375 q 116 375 124 374 q 133 374 149 374 q 251 374 292 406 q 333 439 333 519 q 333 580 302 615 q 271 649 215 649 q 167 649 129 627 q 91 605 91 584 q 91 580 96 577 q 101 575 110 575 l 118 575 q 134 575 144 564 q 154 554 154 538 q 154 518 142 505 q 130 491 114 491 q 89 491 75 507 q 61 523 61 552 q 61 600 106 631 q 151 662 222 662 q 311 662 362 623 q 412 584 412 515 q 412 458 369 419 q 327 380 254 371 q 344 358 394 311 q 443 263 443 189 q 443 106 374 47 q 304 -12 204 -12 q 122 -12 71 24 q 20 60 20 116 q 20 146 37 166 q 54 186 79 186 q 99 186 113 172 q 128 157 128 138 q 128 118 115 104 q 102 90 84 90 q 77 90 69 91 q 60 93 58 93 q 54 93 51 88 q 48 83 48 77 q 48 52 92 28 q 137 4 193 4 q 272 4 314 50 q 356 95 356 182 q 356 278 311 322 q 265 365 164 365 q 151 365 137 364 q 123 363 108 362 z"},";":{"x_min":0,"x_max":329,"ha":329,"o":"m 146 -192 l 135 -181 q 176 -141 198 -100 q 219 -60 219 -23 q 219 -10 214 -4 q 209 3 199 3 q 193 3 174 -4 q 155 -11 142 -11 q 117 -11 103 2 q 89 15 89 38 q 89 61 106 75 q 123 90 149 90 q 187 90 210 61 q 234 32 234 -14 q 234 -63 212 -107 q 190 -151 146 -192 z m 120 366 q 120 384 133 397 q 146 410 164 410 q 183 410 196 397 q 209 385 209 366 q 209 347 196 334 q 183 321 164 321 q 146 321 133 334 q 120 348 120 366 z"},"J":{"x_min":0,"x_max":345,"ha":345,"o":"m 143 648 l 66 648 l 66 662 l 314 662 l 314 648 l 242 648 l 242 165 q 242 37 206 -18 q 169 -73 88 -73 q 38 -73 3 -49 q -31 -24 -31 11 q -31 35 -16 51 q -1 66 22 66 q 41 66 52 54 q 64 42 64 23 q 64 5 52 -7 q 40 -20 19 -23 q 23 -39 38 -47 q 53 -56 76 -56 q 112 -56 128 -29 q 143 -1 143 67 z"},"V":{"x_min":0,"x_max":493,"ha":493,"o":"m -65 648 l -65 662 l 191 662 l 191 648 l 110 648 l 286 139 l 437 573 q 443 590 447 602 q 450 615 450 619 q 450 633 438 639 q 425 645 379 648 l 379 662 l 562 662 l 562 648 q 510 646 492 635 q 475 624 460 581 l 249 -19 l 244 -22 l 4 648 z"},"\"":{"x_min":0,"x_max":331,"ha":331,"o":"m 253 422 l 238 422 l 206 645 q 206 646 206 648 q 204 659 204 664 q 204 688 215 701 q 226 714 246 714 q 266 714 276 701 q 287 688 287 665 q 287 658 287 654 q 287 649 286 645 z m 93 422 l 77 422 l 46 645 q 45 653 44 658 q 44 662 44 665 q 44 688 55 701 q 65 714 85 714 q 105 714 116 701 q 127 688 127 665 q 127 661 125 648 q 125 646 125 645 z"},"7":{"x_min":0,"x_max":481,"ha":481,"o":"m 42 497 l 30 499 q 38 569 42 600 q 46 631 50 653 l 468 653 l 295 277 q 263 206 243 152 q 223 98 223 83 q 223 79 226 78 q 229 76 237 76 l 245 76 q 252 76 256 76 q 260 76 263 75 q 281 71 290 61 q 299 51 299 33 q 299 13 287 0 q 275 -12 256 -12 q 232 -12 219 6 q 205 25 205 56 q 205 77 213 108 q 221 139 239 185 l 387 572 l 108 572 q 87 572 78 571 q 69 570 65 567 q 61 564 56 551 q 52 537 42 497 z"},"S":{"x_min":0,"x_max":495,"ha":495,"o":"m 46 237 l 60 237 q 67 128 123 64 q 178 1 265 1 q 334 1 380 44 q 426 87 426 152 q 426 179 415 202 q 404 226 384 243 q 351 272 232 294 q 223 296 219 297 q 125 315 86 358 q 47 400 47 480 q 47 570 96 623 q 146 676 229 676 q 282 676 335 647 q 389 619 390 619 q 401 619 408 628 q 415 637 415 652 l 415 657 l 429 657 l 429 462 l 415 462 q 403 558 354 610 q 306 662 229 662 q 163 662 126 627 q 90 592 90 529 q 90 492 103 467 q 115 442 143 425 q 160 415 218 405 q 275 396 305 389 q 395 368 433 325 q 471 282 471 203 q 471 105 416 46 q 360 -13 268 -13 q 214 -13 153 13 q 91 39 84 39 q 74 39 67 28 q 61 18 60 0 l 46 0 z"},"}":{"x_min":0,"x_max":500,"ha":500,"o":"m 87 740 l 92 740 q 197 740 237 704 q 277 668 277 571 l 277 467 q 277 390 305 361 q 333 333 414 325 l 414 296 q 334 290 306 260 q 277 231 277 154 l 277 50 q 277 -47 237 -83 q 197 -119 92 -119 l 87 -119 l 87 -94 q 157 -93 182 -68 q 207 -42 207 34 l 207 104 q 207 214 237 255 q 267 295 347 310 q 267 325 237 365 q 207 406 207 516 l 207 586 q 207 662 182 688 q 156 714 87 715 z"},"Z":{"x_min":0,"x_max":597,"ha":597,"o":"m 21 0 l 416 648 l 306 648 q 162 648 115 618 q 69 588 69 509 q 69 499 69 493 q 69 488 70 483 l 56 483 l 56 662 l 542 662 l 141 14 l 269 14 q 422 14 476 48 q 529 83 529 172 q 529 175 528 182 q 528 189 528 193 l 542 193 l 542 0 z"},"x":{"x_min":0,"x_max":435,"ha":435,"o":"m 18 384 l 18 398 l 213 398 l 213 384 l 163 384 l 236 263 l 292 334 q 301 345 303 351 q 306 356 306 362 q 306 374 295 379 q 283 384 258 384 l 258 398 l 405 398 l 405 384 l 400 384 q 348 384 314 340 l 312 337 l 244 249 l 387 14 l 436 14 l 436 0 l 227 0 l 227 14 l 293 14 l 198 172 l 125 80 q 115 67 109 56 q 103 44 103 38 q 103 26 115 20 q 126 14 149 14 l 155 14 l 155 0 l -1 0 l -1 14 l 7 14 q 55 14 102 75 l 104 78 l 189 186 l 70 384 z"},")":{"x_min":0,"x_max":324,"ha":324,"o":"m 12 660 l 12 676 q 122 599 183 482 q 243 364 243 227 q 243 90 183 -28 q 122 -145 12 -222 l 12 -206 q 92 -139 129 -48 q 167 44 167 173 l 167 281 q 167 410 129 502 q 92 593 12 660 z"},"&":{"x_min":0,"x_max":715,"ha":715,"o":"m 380 111 q 330 48 285 20 q 241 -9 194 -9 q 135 -9 87 41 q 40 90 40 152 q 40 202 83 251 q 126 300 208 343 q 170 396 156 430 q 141 463 141 492 q 141 542 182 582 q 223 622 274 622 q 323 622 354 594 q 384 565 384 519 q 384 480 361 445 q 337 411 291 380 q 337 315 368 274 q 398 233 424 199 l 433 210 q 518 317 562 317 q 586 317 603 301 q 619 286 619 263 q 619 236 605 221 q 590 205 566 205 q 548 205 536 214 q 523 223 519 239 q 517 247 516 259 q 516 272 513 272 q 510 272 503 265 q 496 258 484 244 l 434 186 q 480 123 517 94 q 554 65 586 65 q 607 65 624 81 q 641 97 659 135 l 674 125 q 633 47 603 21 q 573 -6 535 -6 q 501 -6 469 17 q 437 41 380 111 z m 282 392 q 326 421 346 452 q 367 483 367 520 q 367 557 344 581 q 321 605 286 605 q 253 605 233 587 q 214 569 214 538 q 214 492 281 393 z m 369 125 q 321 183 236 301 l 215 331 q 165 305 144 277 q 122 249 122 212 q 122 157 167 105 q 212 53 265 53 q 291 53 316 70 q 341 87 369 125 z"},"_":{"x_min":0,"x_max":500,"ha":500,"o":"m 0 -178 l 500 -178 l 500 -236 l 0 -236 z"},"v":{"x_min":0,"x_max":440,"ha":440,"o":"m 45 384 l 3 384 l 3 398 l 189 398 l 189 384 l 132 384 l 251 103 l 343 328 q 347 338 349 345 q 351 353 351 359 q 351 373 340 378 q 329 383 287 384 l 287 398 l 426 398 l 426 384 l 420 384 q 400 384 386 369 q 373 354 352 305 l 224 -7 l 216 -12 z"},"O":{"x_min":0,"x_max":657,"ha":657,"o":"m 141 331 q 141 176 191 88 q 241 1 329 1 q 417 1 467 88 q 516 175 516 331 q 516 487 466 575 q 417 662 329 662 q 241 662 191 574 q 141 486 141 331 z m 32 331 q 32 402 53 462 q 73 521 114 569 q 159 622 214 649 q 269 676 329 676 q 390 676 444 649 q 499 622 544 569 q 584 522 605 462 q 625 402 625 331 q 625 259 605 200 q 584 140 544 93 q 499 41 444 13 q 390 -14 329 -14 q 269 -14 214 13 q 159 41 114 93 q 73 141 53 200 q 32 260 32 331 z"},"(":{"x_min":0,"x_max":324,"ha":324,"o":"m 312 660 q 232 593 195 502 q 157 410 157 281 l 157 173 q 157 44 195 -48 q 232 -139 312 -206 l 312 -222 q 202 -145 142 -28 q 81 90 81 227 q 81 364 142 482 q 202 599 312 676 z"},"C":{"x_min":0,"x_max":606,"ha":606,"o":"m 534 237 l 547 237 l 547 13 l 534 13 q 530 36 522 48 q 514 60 502 60 q 490 60 458 39 q 449 32 444 29 l 443 28 q 380 -14 321 -14 q 265 -14 211 13 q 157 41 113 92 q 70 141 50 196 q 30 251 30 317 q 30 392 53 459 q 76 526 118 575 q 160 624 214 650 q 267 676 325 676 q 384 676 453 635 q 457 633 460 631 q 465 628 474 623 q 497 608 507 608 q 520 608 526 618 q 533 628 534 648 l 547 648 l 547 450 l 534 450 q 524 542 467 602 q 409 662 332 662 q 236 662 188 577 q 141 493 141 321 q 141 246 151 188 q 160 129 178 96 q 202 52 241 27 q 280 1 322 1 q 372 1 419 30 q 467 58 500 109 q 515 131 523 161 q 531 190 534 237 z"},"W":{"x_min":0,"x_max":738,"ha":738,"o":"m 7 648 l -62 648 l -62 662 l 153 662 l 153 648 l 113 648 l 289 139 l 359 340 l 250 648 l 181 648 l 181 662 l 565 662 l 565 648 q 514 646 496 635 q 478 624 463 581 l 421 460 l 531 139 l 683 573 q 688 588 692 601 q 695 614 695 619 q 695 633 683 639 q 670 645 625 648 l 625 662 l 807 662 l 807 648 q 757 646 740 635 q 722 625 706 581 l 495 -19 l 490 -22 l 369 312 l 252 -19 l 247 -22 z m 356 648 l 412 489 l 441 573 q 447 590 450 602 q 453 614 453 620 q 453 635 442 641 q 430 648 405 648 z"},"A":{"x_min":0,"x_max":456,"ha":456,"o":"m 79 229 l 273 229 l 172 512 z m -71 0 l -71 14 l -58 14 q -5 14 14 74 l 14 75 l 207 669 l 218 669 l 453 14 l 519 14 l 519 0 l 265 0 l 265 14 l 351 14 l 278 215 l 74 215 l 25 56 q 23 51 22 45 q 21 40 21 38 q 21 26 35 21 q 49 16 102 14 l 102 0 z"},"f":{"x_min":0,"x_max":264,"ha":264,"o":"m 23 0 l 23 14 l 81 14 l 81 384 l 23 384 l 23 398 l 81 398 q 81 406 80 415 q 80 423 80 440 q 80 559 117 623 q 154 687 223 687 q 259 687 283 664 q 307 640 307 605 q 307 583 294 570 q 281 557 259 557 q 242 557 232 568 q 222 579 222 597 q 222 615 246 630 q 269 644 269 651 q 269 660 257 666 q 245 672 225 672 q 190 672 176 640 q 162 608 162 523 l 162 398 l 250 398 l 250 384 l 162 384 l 162 14 l 219 14 l 219 0 z"},"Q":{"x_min":0,"x_max":657,"ha":657,"o":"m 278 -9 q 165 19 98 110 q 32 202 32 331 q 32 402 53 462 q 73 521 114 569 q 159 622 214 649 q 269 676 329 676 q 390 676 444 649 q 499 622 544 569 q 584 522 605 462 q 625 402 625 331 q 625 200 558 109 q 490 18 375 -9 l 375 -83 q 375 -141 397 -168 q 419 -195 468 -195 q 482 -195 498 -191 q 514 -187 530 -178 l 535 -191 q 509 -203 485 -209 q 460 -215 436 -215 q 361 -215 319 -178 q 278 -142 278 -75 z m 141 331 q 141 176 191 88 q 241 1 329 1 q 417 1 467 88 q 516 175 516 331 q 516 487 466 575 q 417 662 329 662 q 241 662 191 574 q 141 486 141 331 z"},"w":{"x_min":0,"x_max":660,"ha":660,"o":"m 3 384 l 3 398 l 189 398 l 189 384 l 132 384 l 251 103 l 320 270 l 270 384 l 206 384 l 206 398 l 426 398 l 426 384 l 358 384 l 476 103 l 568 328 q 573 341 575 347 q 577 354 577 359 q 577 373 566 378 q 555 383 512 384 l 512 398 l 651 398 l 651 384 l 645 384 q 625 384 613 370 q 600 357 578 305 l 449 -7 l 441 -12 l 329 247 l 224 -7 l 216 -12 l 44 384 z"},"-":{"x_min":0,"x_max":384,"ha":384,"o":"m 83 168 l 83 232 l 301 232 l 301 168 z"},"E":{"x_min":0,"x_max":627,"ha":627,"o":"m 87 14 l 87 648 l 17 648 l 17 662 l 507 662 l 519 501 l 504 501 q 497 586 458 617 q 419 648 312 648 l 187 648 l 187 344 l 218 344 q 304 344 333 368 q 362 392 362 457 l 362 461 l 376 461 l 376 213 l 362 213 l 362 221 q 362 285 336 307 q 310 329 218 329 l 187 329 l 187 14 l 315 14 q 443 14 493 53 q 542 92 542 190 l 542 193 l 556 193 l 556 0 l 17 0 l 17 14 z"},"s":{"x_min":0,"x_max":329,"ha":329,"o":"m 35 -3 l 35 137 l 45 137 q 63 67 93 36 q 123 5 171 5 q 213 5 237 30 q 261 54 261 97 q 261 133 236 153 q 210 173 164 173 q 104 173 69 203 q 35 233 35 287 q 35 339 67 374 q 99 409 146 409 q 188 409 230 387 q 239 383 241 383 q 247 383 250 387 q 253 392 253 400 q 253 404 253 406 q 252 408 252 410 l 268 410 l 268 293 l 257 293 q 246 345 219 371 q 192 396 148 396 q 112 396 89 375 q 66 354 66 323 q 66 310 71 298 q 75 287 84 277 q 103 259 161 254 q 185 252 198 250 q 249 243 276 211 q 304 179 304 129 q 304 65 270 26 q 235 -13 178 -13 q 128 -13 82 18 q 70 25 67 25 q 57 25 53 19 q 49 12 49 -3 z"},">":{"x_min":0,"x_max":833,"ha":833,"o":"m 129 559 l 704 323 l 704 273 l 129 37 l 129 100 l 617 298 l 129 497 z"},"l":{"x_min":0,"x_max":222,"ha":222,"o":"m 12 0 l 12 14 l 69 14 l 69 648 l 12 648 l 12 662 l 60 662 q 88 662 110 668 q 132 673 153 686 l 153 14 l 208 14 l 208 0 z"},"8":{"x_min":0,"x_max":481,"ha":481,"o":"m 244 359 q 296 371 319 408 q 342 445 342 521 q 342 585 318 617 q 294 649 246 649 q 195 649 169 615 q 143 581 143 513 q 143 447 168 408 q 194 370 244 359 z m 244 347 q 185 331 152 286 q 119 240 119 173 q 119 96 154 49 q 188 3 246 3 q 303 3 336 43 q 368 84 368 156 q 368 236 337 284 q 306 332 244 347 z m 223 353 q 146 371 102 411 q 59 451 59 505 q 59 570 114 617 q 168 665 244 665 q 318 665 372 618 q 427 571 427 509 q 427 452 385 411 q 343 371 266 353 q 361 324 411 272 q 461 221 461 153 q 461 83 399 35 q 337 -12 243 -12 q 148 -12 87 35 q 26 83 26 155 q 26 221 78 273 q 130 326 223 353 z"},"\\":{"x_min":0,"x_max":278,"ha":278,"o":"m 306 -93 l 280 -93 l 0 676 l 27 676 z"},"e":{"x_min":0,"x_max":391,"ha":391,"o":"m 114 253 l 268 253 l 268 300 q 268 349 249 373 q 230 396 190 396 q 152 396 133 369 q 114 341 114 286 z m 114 239 l 114 123 q 114 61 138 32 q 162 4 214 4 q 266 4 304 38 q 342 72 358 133 l 373 133 q 355 64 312 25 q 269 -13 210 -13 q 133 -13 78 48 q 23 108 23 196 q 23 287 73 349 q 122 410 194 410 q 263 410 312 362 q 361 313 366 239 z"},"b":{"x_min":0,"x_max":493,"ha":493,"o":"m 147 282 l 147 102 q 168 53 200 28 q 233 3 276 3 q 326 3 348 36 q 370 68 370 143 l 370 258 q 370 326 346 359 q 322 393 274 393 q 233 393 200 364 q 167 335 147 282 z m 5 14 l 63 14 l 63 648 l 5 648 l 5 662 l 54 662 q 81 662 103 668 q 125 673 147 686 l 147 318 q 167 362 202 386 q 236 410 280 410 q 353 410 407 348 q 461 287 461 200 q 461 105 408 47 q 355 -12 271 -12 q 232 -12 201 8 q 170 27 146 66 l 146 0 l 5 0 z"},"%":{"x_min":0,"x_max":704,"ha":704,"o":"m 478 169 q 478 77 493 42 q 508 7 544 7 q 581 7 596 42 q 611 77 611 169 q 611 261 596 296 q 581 330 544 330 q 507 330 493 296 q 478 262 478 169 z m 413 169 q 413 244 451 294 q 489 344 544 344 q 600 344 638 294 q 676 244 676 169 q 676 94 637 44 q 599 -7 544 -7 q 489 -7 451 43 q 413 94 413 169 z m 92 484 q 92 393 107 357 q 123 322 159 322 q 196 322 211 357 q 226 392 226 484 q 226 577 211 611 q 196 646 159 646 q 122 646 107 611 q 92 576 92 484 z m 28 484 q 28 560 66 610 q 104 660 159 660 q 214 660 253 610 q 291 559 291 484 q 291 409 252 359 q 214 308 159 308 q 104 308 66 358 q 28 409 28 484 z m 191 -12 l 161 -12 l 512 664 l 543 664 z"},"m":{"x_min":0,"x_max":755,"ha":755,"o":"m 69 384 l 12 384 l 12 398 l 60 398 q 91 398 115 401 q 138 404 153 410 l 153 321 q 181 366 216 388 q 250 410 294 410 q 344 410 377 385 q 411 360 418 316 q 448 364 483 387 q 519 410 563 410 q 622 410 656 377 q 690 343 690 285 l 690 14 l 748 14 l 748 0 l 551 0 l 551 14 l 607 14 l 607 314 q 607 358 595 375 q 583 391 552 391 q 514 391 483 368 q 451 344 421 293 l 421 14 l 479 14 l 479 0 l 282 0 l 282 14 l 338 14 l 338 314 q 338 358 326 375 q 313 391 283 391 q 244 391 212 367 q 180 343 153 293 l 153 14 l 208 14 l 208 0 l 12 0 l 12 14 l 69 14 z"},"#":{"x_min":0,"x_max":769,"ha":769,"o":"m 342 424 l 293 284 l 434 284 l 484 424 z m 380 711 l 445 711 l 363 481 l 503 481 l 585 711 l 649 711 l 568 481 l 718 481 l 698 424 l 547 424 l 498 284 l 660 284 l 639 228 l 478 228 l 397 -1 l 332 -1 l 413 228 l 273 228 l 192 -1 l 128 -1 l 209 228 l 51 228 l 72 284 l 229 284 l 278 424 l 108 424 l 129 481 l 299 481 z"},",":{"x_min":0,"x_max":241,"ha":241,"o":"m 110 -192 l 100 -181 q 141 -141 162 -100 q 184 -60 184 -23 q 184 -11 178 -4 q 173 3 163 3 q 157 3 138 -4 q 119 -11 106 -11 q 81 -11 67 2 q 53 15 53 38 q 53 61 70 75 q 87 90 114 90 q 151 90 175 61 q 199 32 199 -14 q 199 -63 177 -107 q 155 -151 110 -192 z"},"n":{"x_min":0,"x_max":486,"ha":486,"o":"m 12 0 l 12 14 l 69 14 l 69 384 l 12 384 l 12 398 l 60 398 q 91 398 115 401 q 138 404 153 410 l 153 321 q 181 366 216 388 q 250 410 294 410 q 353 410 387 377 q 421 343 421 285 l 421 14 l 479 14 l 479 0 l 282 0 l 282 14 l 338 14 l 338 314 q 338 358 326 375 q 313 391 283 391 q 244 391 212 367 q 180 343 153 293 l 153 14 l 208 14 l 208 0 z"},"h":{"x_min":0,"x_max":486,"ha":486,"o":"m 12 0 l 12 14 l 69 14 l 69 648 l 12 648 l 12 662 l 60 662 q 88 662 110 668 q 132 673 153 686 l 153 321 q 181 366 216 388 q 250 410 294 410 q 353 410 387 377 q 421 343 421 285 l 421 14 l 479 14 l 479 0 l 282 0 l 282 14 l 338 14 l 338 314 q 338 358 326 375 q 313 391 283 391 q 244 391 212 367 q 180 343 153 293 l 153 14 l 208 14 l 208 0 z"},"z":{"x_min":0,"x_max":382,"ha":382,"o":"m 12 0 l 258 384 l 161 384 q 102 384 79 358 q 55 333 55 268 l 55 249 l 40 249 l 40 398 l 368 398 l 115 14 l 214 14 q 273 14 302 45 q 331 75 331 138 l 331 148 l 344 148 l 344 0 z"},"B":{"x_min":0,"x_max":569,"ha":569,"o":"m 185 14 l 228 14 q 329 14 376 55 q 424 97 424 184 q 424 265 370 306 q 317 347 211 347 q 207 347 198 347 q 189 346 185 346 z m 185 359 q 193 358 202 358 q 210 358 227 358 q 325 358 370 391 q 415 423 415 494 q 415 565 368 606 q 321 647 238 647 l 185 647 z m 12 0 l 12 14 l 86 14 l 86 648 l 12 648 l 12 662 l 274 662 q 388 662 449 621 q 511 580 511 505 q 511 440 461 398 q 411 357 324 351 q 425 341 478 298 q 531 254 531 181 q 531 101 469 51 q 407 0 307 0 z"},"K":{"x_min":0,"x_max":519,"ha":519,"o":"m -14 0 l -14 14 l 62 14 l 62 648 l -14 648 l -14 662 l 234 662 l 234 648 l 163 648 l 163 342 l 393 568 q 413 587 423 602 q 434 617 434 626 q 434 645 364 647 q 355 648 351 648 l 351 662 l 588 662 l 588 648 l 582 648 q 542 648 509 633 q 476 619 417 564 l 237 396 l 546 14 l 617 14 l 617 0 l 348 0 l 348 14 l 429 14 l 173 332 l 163 322 l 163 14 l 234 14 l 234 0 z"},"R":{"x_min":0,"x_max":604,"ha":604,"o":"m 189 648 l 189 352 l 222 352 q 322 352 370 388 q 418 423 418 497 q 418 577 380 612 q 342 648 257 648 z m 12 0 l 12 14 l 87 14 l 87 648 l 12 648 l 12 662 l 290 662 q 403 662 462 622 q 520 583 520 505 q 520 437 472 397 q 425 357 333 348 q 418 335 455 299 q 492 262 501 179 q 503 163 505 134 q 516 14 564 14 q 574 14 583 16 q 591 17 600 21 l 606 8 q 583 0 561 -3 q 539 -7 517 -7 q 486 -7 464 5 q 442 16 426 40 q 405 73 395 168 q 391 206 388 226 q 379 290 344 313 q 309 337 222 337 l 189 337 l 189 14 l 259 14 l 259 0 z"},"T":{"x_min":0,"x_max":597,"ha":597,"o":"m 585 662 l 585 469 l 571 469 l 571 494 q 571 543 566 569 q 561 595 549 610 q 532 631 500 639 q 467 648 390 648 l 348 648 l 348 14 l 421 14 l 421 0 l 174 0 l 174 14 l 247 14 l 247 648 l 206 648 q 128 648 96 639 q 63 631 46 610 q 34 595 29 569 q 24 543 24 494 l 24 469 l 10 469 l 10 662 z"},"P":{"x_min":0,"x_max":549,"ha":549,"o":"m 187 649 l 187 323 q 213 314 237 310 q 261 305 281 305 q 348 305 388 350 q 428 395 428 471 q 428 561 375 605 q 322 650 215 650 q 210 650 201 649 q 192 649 187 649 z m 12 0 l 12 14 l 88 14 l 88 648 l 12 648 l 12 662 l 271 662 q 395 662 459 615 q 524 569 524 480 q 524 394 462 340 q 399 287 298 287 q 272 287 245 291 q 217 295 187 304 l 187 14 l 259 14 l 259 0 z"},"|":{"x_min":0,"x_max":500,"ha":500,"o":"m 219 764 l 281 764 l 281 -236 l 219 -236 z"},"t":{"x_min":0,"x_max":289,"ha":289,"o":"m 149 70 q 149 37 159 23 q 168 9 192 9 q 217 9 235 23 q 254 38 263 64 l 278 64 q 267 27 240 8 q 214 -12 177 -12 q 153 -12 132 -4 q 110 3 95 18 q 83 29 78 44 q 73 58 73 85 l 73 105 l 73 384 l 4 384 l 4 398 q 63 398 95 430 q 126 461 137 531 l 149 531 l 149 398 l 260 398 l 260 384 l 149 384 z"},"M":{"x_min":0,"x_max":764,"ha":764,"o":"m 12 0 l 12 14 q 62 16 74 25 q 86 35 86 84 l 86 648 l 12 648 l 12 662 l 183 662 l 386 163 l 581 662 l 753 662 l 753 648 l 681 648 l 681 14 l 753 14 l 753 0 l 505 0 l 505 14 l 581 14 l 581 616 l 346 14 l 338 14 l 106 590 l 106 84 q 106 35 120 24 q 135 14 193 14 l 193 0 z"},"g":{"x_min":0,"x_max":442,"ha":442,"o":"m 268 -18 l 180 -18 q 124 -18 93 -46 q 62 -73 62 -124 q 62 -175 99 -204 q 136 -234 200 -234 q 281 -234 337 -190 q 392 -146 392 -84 q 392 -48 365 -33 q 339 -18 268 -18 z m 128 258 q 128 201 148 174 q 168 148 212 148 q 255 148 273 176 q 291 203 291 277 q 291 342 272 370 q 253 398 211 398 q 166 398 147 367 q 128 337 128 258 z m 107 -21 q 74 -18 52 9 q 30 36 30 74 q 30 115 54 137 q 79 160 125 162 q 88 187 71 214 q 53 240 53 272 q 53 331 98 370 q 144 410 213 410 q 245 410 272 400 q 298 390 318 370 q 334 389 352 398 q 371 408 391 408 q 412 408 426 397 q 439 385 439 368 q 439 353 430 344 q 420 335 405 335 q 389 335 379 344 q 368 352 368 364 q 368 372 371 379 q 375 387 381 393 q 367 391 354 383 q 341 375 328 361 q 347 338 356 316 q 365 294 365 271 q 365 215 320 174 q 274 134 211 134 q 195 134 165 141 q 135 149 121 149 q 91 149 70 134 q 50 120 50 99 q 50 76 70 68 q 89 59 158 59 l 242 59 q 346 59 380 33 q 414 7 414 -61 q 414 -144 355 -197 q 295 -250 201 -250 q 116 -250 64 -217 q 12 -183 12 -130 q 12 -98 37 -69 q 62 -41 107 -21 z"},"j":{"x_min":0,"x_max":222,"ha":222,"o":"m 74 384 l 16 384 l 16 398 l 64 398 q 96 398 119 401 q 142 404 157 410 l 157 -7 q 157 -122 119 -185 q 81 -248 13 -248 q -23 -248 -46 -225 q -70 -201 -70 -166 q -70 -144 -57 -132 q -45 -119 -23 -119 q -7 -119 4 -130 q 15 -141 15 -156 q 15 -177 -9 -191 q -33 -206 -33 -212 q -33 -221 -21 -227 q -8 -233 11 -233 q 46 -233 60 -202 q 74 -171 74 -75 z m 70 637 q 70 655 83 669 q 96 682 114 682 q 133 682 146 669 q 158 656 158 637 q 158 618 146 605 q 133 593 114 593 q 96 593 83 606 q 70 619 70 637 z"},"i":{"x_min":0,"x_max":222,"ha":222,"o":"m 69 384 l 12 384 l 12 398 l 60 398 q 91 398 115 401 q 138 404 153 410 l 153 14 l 208 14 l 208 0 l 12 0 l 12 14 l 69 14 z m 66 637 q 66 655 79 669 q 92 682 110 682 q 128 682 141 669 q 154 656 154 637 q 154 618 141 605 q 129 593 110 593 q 91 593 79 606 q 66 619 66 637 z"},"y":{"x_min":0,"x_max":440,"ha":440,"o":"m 264 68 q 243 12 222 -67 q 200 -146 196 -160 q 180 -210 160 -229 q 141 -249 107 -249 q 86 -249 72 -235 q 58 -221 58 -199 q 58 -180 70 -167 q 83 -154 101 -154 q 119 -154 131 -167 q 143 -180 143 -199 q 143 -200 143 -204 q 142 -208 142 -211 q 142 -212 143 -212 q 144 -213 145 -213 q 162 -213 177 -173 q 192 -133 217 -15 l 45 384 l 3 384 l 3 398 l 189 398 l 189 384 l 132 384 l 255 90 l 343 328 q 348 340 349 347 q 351 354 351 361 q 351 382 272 384 q 270 384 269 384 l 269 398 l 426 398 l 426 384 l 421 384 q 400 384 385 367 q 370 350 352 304 z"},"@":{"x_min":0,"x_max":986,"ha":986,"o":"m 581 164 q 551 112 513 87 q 476 61 430 61 q 369 61 332 106 q 295 151 295 225 q 295 278 319 331 q 343 383 386 425 q 418 456 457 474 q 495 491 532 491 q 575 491 602 467 q 629 443 640 396 l 666 484 l 736 484 l 653 186 q 653 185 652 184 q 644 155 644 133 q 644 110 656 96 q 669 83 690 83 q 707 83 729 92 q 750 100 770 115 q 830 159 861 228 q 893 297 893 382 q 893 450 869 505 q 844 560 794 604 q 750 643 688 664 q 627 685 558 685 q 467 685 391 656 q 316 628 257 571 q 193 509 161 427 q 128 346 128 247 q 128 162 156 98 q 184 35 244 -16 q 300 -63 372 -88 q 443 -112 528 -112 q 607 -112 683 -86 q 758 -61 827 -11 l 842 -29 q 770 -83 689 -110 q 608 -137 522 -137 q 431 -137 355 -115 q 279 -92 221 -47 q 147 8 109 87 q 71 166 71 262 q 71 362 113 448 q 155 535 235 601 q 299 655 377 682 q 455 709 545 709 q 714 709 815 618 q 916 526 916 374 q 916 297 888 229 q 859 161 808 114 q 780 88 748 75 q 715 61 682 61 q 635 61 609 87 q 584 112 581 164 z m 536 471 q 510 471 488 456 q 466 441 443 407 q 408 354 387 293 q 366 231 366 183 q 366 138 386 111 q 406 85 439 85 q 471 85 500 107 q 530 128 557 172 q 585 218 602 271 q 618 324 618 367 q 618 413 595 442 q 572 471 536 471 z"},".":{"x_min":0,"x_max":241,"ha":241,"o":"m 76 37 q 76 56 89 69 q 102 82 120 82 q 139 82 152 69 q 165 56 165 37 q 165 19 152 6 q 139 -7 120 -7 q 102 -7 89 6 q 76 19 76 37 z"},"p":{"x_min":0,"x_max":493,"ha":493,"o":"m 147 282 l 147 102 q 167 53 200 28 q 232 3 277 3 q 327 3 349 36 q 371 68 371 143 l 371 258 q 371 326 347 359 q 323 393 275 393 q 234 393 200 364 q 166 334 147 282 z m 147 -227 l 205 -227 l 205 -241 l 6 -241 l 6 -227 l 64 -227 l 64 384 l 6 384 l 6 398 l 54 398 q 85 398 108 401 q 131 404 147 410 l 147 318 q 167 362 202 386 q 236 410 280 410 q 353 410 407 348 q 462 286 462 200 q 462 105 409 47 q 356 -12 272 -12 q 233 -12 202 8 q 171 27 147 66 z"},"X":{"x_min":0,"x_max":544,"ha":544,"o":"m -69 0 l -69 14 q -10 14 14 24 q 38 34 60 69 l 224 325 l 38 648 l -29 648 l -29 662 l 216 662 l 216 648 l 157 648 l 286 422 l 376 562 q 396 594 402 605 q 407 616 407 623 q 407 645 338 648 q 335 648 333 648 l 333 662 l 518 662 l 518 648 q 452 648 408 579 l 407 578 l 296 403 l 514 14 l 573 14 l 573 0 l 322 0 l 322 14 l 395 14 l 233 305 l 102 100 q 87 77 79 61 q 70 44 70 39 q 70 17 127 14 q 133 14 136 14 l 136 0 z"},"*":{"x_min":0,"x_max":500,"ha":500,"o":"m 247 478 q 240 557 202 620 q 197 628 197 630 q 197 633 199 635 q 201 636 205 636 l 209 636 l 231 633 l 237 660 q 239 670 241 673 q 244 676 248 676 q 256 676 260 661 q 260 661 260 660 l 268 634 l 288 639 q 289 639 290 640 q 291 640 291 640 q 295 640 297 637 q 299 635 299 631 q 299 629 295 622 q 262 558 261 479 q 328 513 381 562 q 394 574 396 574 q 398 574 400 572 q 401 571 401 568 l 404 542 l 433 545 l 436 545 q 441 545 443 543 q 445 542 445 537 q 445 532 444 531 q 444 529 443 529 l 416 509 l 424 491 q 425 489 427 485 q 429 481 429 481 q 429 479 427 477 q 425 475 422 475 q 421 475 418 476 q 398 482 376 482 q 323 482 302 478 q 280 475 264 466 q 303 425 349 396 q 394 367 394 364 q 394 360 387 357 l 386 357 l 369 351 l 382 325 q 383 322 384 320 q 385 317 385 315 q 385 310 382 307 q 379 304 375 304 q 374 304 373 304 q 372 305 369 306 l 339 326 l 322 309 q 321 308 319 307 q 318 306 317 306 q 312 306 307 331 q 306 333 306 334 q 298 376 286 406 q 273 436 254 457 q 229 407 217 354 q 206 302 205 302 q 204 302 204 302 q 203 303 202 304 l 184 322 l 159 300 q 155 296 153 295 q 150 294 148 294 q 145 294 142 297 q 139 299 139 304 q 139 305 139 307 q 140 308 141 312 l 150 340 l 129 348 q 125 350 124 351 q 122 353 122 356 q 122 356 167 388 q 211 419 244 467 q 231 471 217 472 q 203 474 186 474 q 156 474 125 470 q 93 467 92 467 q 84 467 80 469 q 76 472 76 475 q 76 476 77 477 l 92 496 l 61 515 q 57 518 55 520 q 54 521 54 525 q 54 529 57 531 q 59 532 66 532 l 76 532 l 100 530 l 101 555 q 101 561 104 564 q 106 567 110 567 q 112 567 121 558 q 175 504 247 478 z"},"Y":{"x_min":0,"x_max":495,"ha":495,"o":"m 114 0 l 114 14 l 200 14 l 200 250 l 23 648 l -55 648 l -55 662 l 200 662 l 200 648 l 129 648 l 289 292 l 418 584 q 424 597 426 605 q 428 613 428 620 q 428 635 415 642 q 402 648 371 648 l 362 648 l 362 662 l 532 662 l 532 648 l 517 648 q 487 648 472 638 q 458 628 442 594 l 298 269 l 298 14 l 383 14 l 383 0 z"},"c":{"x_min":0,"x_max":391,"ha":391,"o":"m 373 133 q 366 65 327 27 q 288 -12 226 -12 q 139 -12 84 43 q 30 99 30 187 q 30 281 90 346 q 150 411 237 411 q 292 411 330 385 q 367 358 367 320 q 367 303 352 289 q 337 275 319 275 q 301 275 288 288 q 275 302 275 321 q 275 342 297 366 q 302 371 302 372 q 302 380 282 390 q 263 400 238 400 q 211 400 188 390 q 165 381 150 364 q 133 345 126 318 q 119 292 119 233 l 119 202 l 119 169 q 119 114 125 88 q 131 61 146 42 q 161 23 180 15 q 200 6 229 6 q 286 6 318 38 q 351 70 358 133 z"},"!":{"x_min":0,"x_max":329,"ha":329,"o":"m 116 31 q 116 49 129 62 q 143 75 161 75 q 180 75 192 62 q 205 50 205 31 q 205 12 192 -1 q 179 -14 161 -14 q 142 -14 129 -1 q 116 12 116 31 z m 171 144 l 156 144 l 156 171 q 156 319 146 415 q 135 510 113 573 q 128 595 141 621 q 153 646 163 676 q 174 646 187 620 q 200 595 215 573 q 192 508 182 412 q 171 315 171 169 z"},"/":{"x_min":0,"x_max":278,"ha":278,"o":"m -2 -93 l -29 -93 l 251 676 l 278 676 z"},"[":{"x_min":0,"x_max":324,"ha":324,"o":"m 312 -213 l 95 -213 l 95 662 l 312 662 l 312 647 l 164 647 l 164 -196 l 312 -196 z"},"6":{"x_min":0,"x_max":481,"ha":481,"o":"m 254 396 q 189 396 152 350 q 114 303 114 222 q 114 114 148 58 q 182 2 246 2 q 302 2 334 57 q 366 113 366 210 q 366 298 336 347 q 307 396 254 396 z m 407 673 l 413 662 q 269 625 198 545 q 126 465 121 335 q 154 378 189 398 q 224 419 264 419 q 347 419 401 359 q 456 300 456 207 q 456 117 393 52 q 330 -12 242 -12 q 150 -12 89 58 q 28 128 28 233 q 28 404 125 517 q 223 630 407 673 z"},"r":{"x_min":0,"x_max":333,"ha":333,"o":"m 12 0 l 12 14 l 69 14 l 69 384 l 12 384 l 12 398 l 60 398 q 91 398 115 401 q 138 404 153 410 l 153 306 q 174 359 201 385 q 228 410 263 410 q 292 410 309 396 q 327 381 327 358 q 327 336 316 323 q 305 310 287 310 q 269 310 256 323 q 242 335 242 352 q 242 361 247 370 q 251 379 261 391 q 256 392 254 393 q 251 393 249 393 q 220 393 193 354 q 167 314 153 248 l 153 14 l 208 14 l 208 0 z"},"2":{"x_min":0,"x_max":481,"ha":481,"o":"m 19 0 q 39 60 171 188 q 188 205 197 213 q 278 293 308 352 q 338 410 338 479 q 338 556 300 601 q 261 645 195 645 q 141 645 97 609 q 54 574 54 534 q 54 519 61 513 q 68 507 91 505 q 115 503 127 493 q 139 483 139 463 q 139 442 125 428 q 112 414 92 414 q 64 414 47 438 q 29 461 29 499 q 29 568 83 615 q 137 662 221 662 q 316 662 374 612 q 431 561 431 477 q 431 421 398 371 q 365 320 272 245 q 259 235 234 215 q 130 133 87 79 l 420 79 l 436 181 l 451 181 l 424 0 z"},"{":{"x_min":0,"x_max":500,"ha":500,"o":"m 413 740 l 413 715 q 344 714 318 688 q 293 662 293 586 l 293 516 q 293 406 263 365 q 233 325 153 310 q 233 295 263 255 q 293 214 293 104 l 293 34 q 293 -42 318 -68 q 343 -93 413 -94 l 413 -119 l 408 -119 q 302 -119 263 -83 q 223 -47 223 50 l 223 154 q 223 231 194 260 q 166 290 86 296 l 86 325 q 167 333 195 361 q 223 390 223 467 l 223 571 q 223 668 263 704 q 302 740 408 740 z"},"9":{"x_min":0,"x_max":481,"ha":481,"o":"m 224 257 q 289 257 326 303 q 364 350 364 431 q 364 538 330 594 q 296 651 231 651 q 176 651 144 596 q 112 541 112 443 q 112 355 142 306 q 171 257 224 257 z m 71 -20 l 65 -9 q 209 29 281 109 q 352 188 357 318 q 324 275 289 255 q 253 234 213 234 q 130 234 76 294 q 22 354 22 446 q 22 536 85 600 q 147 665 235 665 q 328 665 389 595 q 450 525 450 420 q 450 249 353 136 q 255 23 71 -20 z"}," ":{"x_min":0,"x_max":241,"ha":241,"o":""},"I":{"x_min":0,"x_max":271,"ha":271,"o":"m 12 0 l 12 14 l 87 14 l 87 648 l 12 648 l 12 662 l 259 662 l 259 648 l 188 648 l 188 14 l 259 14 l 259 0 z"},"H":{"x_min":0,"x_max":713,"ha":713,"o":"m 12 0 l 12 14 l 86 14 l 86 648 l 12 648 l 12 662 l 262 662 l 262 648 l 185 648 l 185 352 l 528 352 l 528 648 l 451 648 l 451 662 l 701 662 l 701 648 l 627 648 l 627 14 l 701 14 l 701 0 l 451 0 l 451 14 l 528 14 l 528 338 l 185 338 l 185 14 l 262 14 l 262 0 z"},"4":{"x_min":0,"x_max":481,"ha":481,"o":"m 206 0 l 206 17 l 279 17 l 279 235 l 9 235 l 14 242 l 357 681 l 368 673 l 79 304 l 279 304 l 279 528 l 365 528 l 365 304 l 462 304 l 462 235 l 365 235 l 365 17 l 442 17 l 442 0 z"},"~":{"x_min":0,"x_max":833,"ha":833,"o":"m 747 370 l 747 306 q 698 271 651 253 q 604 236 558 236 q 537 236 514 240 q 491 245 465 253 q 450 258 422 268 q 324 303 275 303 q 234 303 190 285 q 146 267 87 225 l 87 290 q 138 326 186 343 q 233 361 276 361 q 303 361 333 355 q 362 349 418 329 q 424 327 435 323 q 515 294 559 294 q 601 294 645 312 q 689 330 747 370 z"},"D":{"x_min":0,"x_max":653,"ha":653,"o":"m 185 14 l 243 14 q 379 14 446 93 q 512 171 512 331 q 512 492 446 570 q 379 648 243 648 l 185 648 z m 12 0 l 12 14 l 86 14 l 86 648 l 12 648 l 12 662 l 262 662 q 345 662 404 644 q 462 626 508 587 q 563 539 592 474 q 620 409 620 331 q 620 253 592 188 q 563 124 508 76 q 462 36 403 18 q 345 0 262 0 z"},"^":{"x_min":0,"x_max":1000,"ha":1000,"o":"m 456 714 l 543 714 l 797 438 l 752 438 l 499 651 l 245 438 l 201 438 z"},"0":{"x_min":0,"x_max":481,"ha":481,"o":"m 120 326 q 120 144 147 73 q 175 2 241 2 q 307 2 334 72 q 361 143 361 326 q 361 509 334 578 q 307 648 241 648 q 174 648 147 578 q 120 508 120 326 z m 28 326 q 28 396 42 453 q 57 510 87 559 q 119 612 157 637 q 195 662 241 662 q 287 662 325 637 q 363 612 395 559 q 425 510 440 453 q 454 396 454 326 q 454 255 440 199 q 425 142 395 93 q 362 40 324 14 q 287 -12 241 -12 q 195 -12 158 14 q 120 40 87 93 q 57 142 42 199 q 28 255 28 326 z"},"F":{"x_min":0,"x_max":572,"ha":572,"o":"m 19 0 l 19 14 l 96 14 l 96 648 l 19 648 l 19 662 l 520 662 l 534 493 l 518 493 q 511 581 464 614 q 418 648 300 648 l 196 648 l 196 344 l 222 344 q 321 344 350 369 q 379 394 379 465 l 379 469 l 393 469 l 393 213 l 379 213 q 378 283 350 306 q 322 330 222 330 l 196 330 l 196 14 l 277 14 l 277 0 z"},"`":{"x_min":0,"x_max":500,"ha":500,"o":"m 336 464 l 303 464 l 142 564 q 127 574 119 584 q 112 594 112 604 q 112 620 122 629 q 132 639 148 639 q 158 639 168 633 q 178 627 195 610 z"},"k":{"x_min":0,"x_max":463,"ha":463,"o":"m 12 0 l 12 14 l 69 14 l 69 648 l 12 648 l 12 662 l 60 662 q 86 662 109 668 q 131 673 154 686 l 154 169 l 283 297 l 286 299 q 331 343 331 356 q 331 364 320 367 q 308 371 285 371 l 271 371 l 271 385 l 439 385 l 439 371 l 432 371 q 408 371 387 362 q 367 353 341 328 l 244 235 l 419 14 l 475 14 l 475 0 l 263 0 l 263 14 l 313 14 l 189 180 l 154 145 l 154 14 l 208 14 l 208 0 z"},"u":{"x_min":0,"x_max":484,"ha":484,"o":"m 335 384 l 277 384 l 277 398 l 325 398 q 356 398 380 401 q 403 404 418 410 l 418 14 l 474 14 l 474 0 l 334 0 l 334 89 q 303 43 269 21 q 234 0 191 0 q 132 0 98 34 q 63 67 63 125 l 63 384 l 6 384 l 6 398 l 54 398 q 85 398 109 401 q 132 404 147 410 l 147 95 q 147 54 161 37 q 174 19 206 19 q 241 19 273 43 q 305 67 335 117 z"},"]":{"x_min":0,"x_max":324,"ha":324,"o":"m 12 -213 l 12 -196 l 160 -196 l 160 647 l 12 647 l 12 662 l 229 662 l 229 -213 z"},"U":{"x_min":0,"x_max":657,"ha":657,"o":"m 82 648 l 6 648 l 6 662 l 267 662 l 267 648 l 185 648 l 185 211 q 185 143 190 116 q 194 88 206 71 q 226 42 264 26 q 303 10 356 10 q 414 10 455 27 q 496 45 523 81 q 539 103 546 131 q 553 158 553 219 l 553 230 l 553 564 q 553 625 540 636 q 526 648 472 648 l 455 648 l 455 662 l 651 662 l 651 648 l 643 648 q 597 648 584 636 q 571 624 571 563 l 571 223 q 571 154 564 124 q 557 94 541 71 q 511 28 458 7 q 405 -14 328 -14 q 259 -14 208 3 q 156 20 125 52 q 102 77 92 110 q 82 143 82 221 z"},"o":{"x_min":0,"x_max":435,"ha":435,"o":"m 23 199 q 23 241 39 279 q 54 318 84 349 q 112 379 146 395 q 181 410 218 410 q 296 410 354 347 q 412 284 412 199 q 412 158 396 119 q 381 81 351 49 q 323 19 290 4 q 256 -11 218 -11 q 180 -11 146 4 q 112 20 84 49 q 54 80 39 119 q 23 157 23 199 z m 113 139 q 113 69 139 36 q 165 3 218 3 q 271 3 297 36 q 322 69 322 139 l 322 260 q 322 330 297 363 q 271 396 218 396 q 165 396 139 363 q 113 330 113 260 z"},"N":{"x_min":0,"x_max":660,"ha":660,"o":"m 106 91 q 106 43 121 30 q 137 17 194 14 l 194 0 l 11 0 l 11 14 q 58 18 71 31 q 85 43 85 92 l 85 648 l 11 648 l 11 662 l 200 662 l 554 177 l 554 571 q 554 619 539 632 q 523 645 466 648 l 466 662 l 648 662 l 648 648 q 602 645 588 631 q 574 618 574 570 l 574 -5 l 563 -5 l 106 619 z"},"+":{"x_min":0,"x_max":833,"ha":833,"o":"m 388 596 l 446 596 l 446 327 l 709 327 l 709 270 l 446 270 l 446 0 l 388 0 l 388 270 l 124 270 l 124 327 l 388 327 z"},"G":{"x_min":0,"x_max":657,"ha":657,"o":"m 585 87 q 529 37 468 11 q 407 -14 343 -14 q 202 -14 116 79 q 31 171 31 326 q 31 410 57 477 q 83 543 134 592 q 177 633 229 654 q 280 676 334 676 q 358 676 382 671 q 406 666 429 656 q 449 647 478 627 q 506 607 516 607 q 530 607 538 617 q 546 628 546 648 l 546 655 l 559 655 l 559 453 l 545 453 q 533 548 477 605 q 420 662 340 662 q 248 662 194 578 q 139 495 139 350 q 139 175 190 88 q 241 1 344 1 q 414 1 449 39 q 485 76 485 150 l 485 198 l 406 198 l 406 212 l 653 212 l 653 198 l 585 198 z"},"q":{"x_min":0,"x_max":493,"ha":493,"o":"m 345 282 q 326 335 292 364 q 259 393 218 393 q 170 393 146 359 q 122 326 122 258 l 122 143 q 122 68 144 36 q 167 3 216 3 q 260 3 292 28 q 325 53 345 102 z m 346 -227 l 346 66 q 322 27 291 8 q 259 -12 221 -12 q 137 -12 84 47 q 31 105 31 200 q 31 287 85 348 q 139 410 212 410 q 256 410 291 386 q 325 362 345 318 l 345 410 q 361 404 384 401 q 407 398 438 398 l 487 398 l 487 384 l 429 384 l 429 -227 l 487 -227 l 487 -241 l 288 -241 l 288 -227 z"},"d":{"x_min":0,"x_max":493,"ha":493,"o":"m 120 142 q 120 68 142 35 q 164 3 214 3 q 257 3 290 28 q 323 53 343 102 l 343 281 q 324 333 291 362 q 257 391 216 391 q 168 391 144 357 q 120 324 120 257 z m 344 66 q 318 26 287 7 q 257 -12 219 -12 q 135 -12 82 47 q 29 105 29 200 q 29 286 83 347 q 137 409 210 409 q 253 409 288 385 q 322 361 343 317 l 343 648 l 286 648 l 286 662 l 334 662 q 360 662 383 668 q 405 674 427 686 l 427 14 l 485 14 l 485 0 l 344 0 z"},"1":{"x_min":0,"x_max":481,"ha":481,"o":"m 140 0 l 140 17 l 222 17 l 222 527 q 222 544 220 553 q 217 562 213 562 q 201 562 157 541 q 113 520 61 487 l 58 504 q 138 551 186 584 q 234 618 273 653 l 307 653 l 307 17 l 381 17 l 381 0 z"},"5":{"x_min":0,"x_max":481,"ha":481,"o":"m 73 348 l 58 357 q 69 374 74 402 q 79 430 79 482 q 79 533 75 572 q 71 611 62 643 q 81 653 111 657 q 140 662 185 662 q 230 662 282 654 q 333 645 339 645 q 354 645 361 652 q 369 658 369 670 l 369 674 l 380 674 l 380 661 q 380 616 356 594 q 333 573 282 573 q 258 573 216 580 q 174 586 155 586 q 137 586 121 582 q 105 578 91 570 q 93 555 94 533 q 95 512 95 481 q 95 440 93 416 q 90 392 85 377 q 115 392 147 400 q 178 407 212 407 q 319 407 384 351 q 449 294 449 202 q 449 110 376 49 q 303 -12 194 -12 q 116 -12 68 25 q 20 63 20 122 q 20 150 36 168 q 52 186 77 186 q 98 186 110 173 q 123 160 123 138 q 123 120 112 109 q 101 99 82 99 l 72 99 q 61 99 56 95 q 51 91 51 81 q 51 55 92 29 q 132 4 187 4 q 267 4 312 55 q 358 106 358 197 q 358 288 315 339 q 271 389 193 389 q 157 389 128 379 q 99 369 73 348 z"}}}
